<svg xmlns="http://www.w3.org/2000/svg" width="1600" height="900" viewBox="0 0 1600 900" fill="none">
<defs>
  <linearGradient id="bg-gradient" x1="0" y1="0" x2="1600" y2="900" gradientUnits="userSpaceOnUse">
    <stop offset="0%" stop-color="#FFFDF8" />
    <stop offset="100%" stop-color="#FFF8EE" />
  </linearGradient>
  <filter id="shadow" x="-10%" y="-10%" width="120%" height="120%">
    <feDropShadow dx="0" dy="8" stdDeviation="10" flood-color="#131B2C" flood-opacity="0.08" />
  </filter>
  <marker id="arrow-ink" markerWidth="10" markerHeight="10" refX="7" refY="5" orient="auto" markerUnits="strokeWidth">
    <path d="M 0 0 L 10 5 L 0 10 z" fill="#131B2C" />
  </marker>
  <marker id="arrow-teal" markerWidth="10" markerHeight="10" refX="7" refY="5" orient="auto" markerUnits="strokeWidth">
    <path d="M 0 0 L 10 5 L 0 10 z" fill="#1B8393" />
  </marker>
  <marker id="arrow-gold" markerWidth="10" markerHeight="10" refX="7" refY="5" orient="auto" markerUnits="strokeWidth">
    <path d="M 0 0 L 10 5 L 0 10 z" fill="#E0A31A" />
  </marker>
  <marker id="arrow-orange" markerWidth="10" markerHeight="10" refX="7" refY="5" orient="auto" markerUnits="strokeWidth">
    <path d="M 0 0 L 10 5 L 0 10 z" fill="#F97316" />
  </marker>
  <marker id="arrow-green" markerWidth="10" markerHeight="10" refX="7" refY="5" orient="auto" markerUnits="strokeWidth">
    <path d="M 0 0 L 10 5 L 0 10 z" fill="#2B8857" />
  </marker>
  <marker id="arrow-red" markerWidth="10" markerHeight="10" refX="7" refY="5" orient="auto" markerUnits="strokeWidth">
    <path d="M 0 0 L 10 5 L 0 10 z" fill="#B94B34" />
  </marker>
</defs>
<g>
<rect x="0" y="0" width="1600" height="900" fill="url(#bg-gradient)" />
<circle cx="90" cy="88" r="120" fill="#FFF3CF" opacity="0.75" />
<circle cx="1515" cy="100" r="110" fill="#EAF7F9" opacity="0.75" />
<circle cx="1495" cy="820" r="120" fill="#FFF1E7" opacity="0.7" />
</g>
<g>
<text x="70" y="66" fill="#131B2C" font-size="34" font-weight="850" font-family="DejaVu Sans, Arial, Helvetica, sans-serif" text-anchor="start" dominant-baseline="alphabetic">NBN runtime service topology</text>
<text x="70" y="96" fill="#556071" font-size="17" font-weight="500" font-family="DejaVu Sans, Arial, Helvetica, sans-serif" text-anchor="start"><tspan x="70" dy="0">Stable service roots on the left.</tspan><tspan x="70" dy="1.18em">Movable per-brain actors on the right.</tspan></text>
</g>
<g>
<rect x="50" y="150" width="240" height="620" rx="34" fill="white" stroke="#D9D1BB" stroke-width="2" />
<rect x="50" y="150" width="240" height="12" rx="34" fill="#E0A31A" />
<text x="74" y="192" fill="#131B2C" font-size="25" font-weight="800" font-family="DejaVu Sans, Arial, Helvetica, sans-serif" text-anchor="start" dominant-baseline="alphabetic">Clients</text>
</g>
<g>
<rect x="340" y="150" width="480" height="620" rx="34" fill="white" stroke="#D9D1BB" stroke-width="2" />
<rect x="340" y="150" width="480" height="12" rx="34" fill="#1B8393" />
<text x="364" y="192" fill="#131B2C" font-size="25" font-weight="800" font-family="DejaVu Sans, Arial, Helvetica, sans-serif" text-anchor="start" dominant-baseline="alphabetic">Core services</text>
</g>
<g>
<rect x="870" y="150" width="680" height="620" rx="34" fill="white" stroke="#D9D1BB" stroke-width="2" />
<rect x="870" y="150" width="680" height="12" rx="34" fill="#F97316" />
<text x="894" y="192" fill="#131B2C" font-size="25" font-weight="800" font-family="DejaVu Sans, Arial, Helvetica, sans-serif" text-anchor="start" dominant-baseline="alphabetic">Per-brain runtime</text>
</g>
<g>
<rect x="80" y="360" width="180" height="110" rx="26" fill="#FFF3CF" stroke="#D9D1BB" stroke-width="2" filter="url(#shadow)" />
<rect x="80" y="360" width="180" height="8" rx="26" fill="#E0A31A" />
<text x="98" y="400" fill="#131B2C" font-size="22" font-weight="750" font-family="DejaVu Sans, Arial, Helvetica, sans-serif" text-anchor="start" dominant-baseline="alphabetic">External World</text>
<text x="98" y="430" fill="#556071" font-size="15" font-weight="500" font-family="DejaVu Sans, Arial, Helvetica, sans-serif" text-anchor="start"><tspan x="98" dy="0">clients</tspan><tspan x="98" dy="1.28em">input + output</tspan></text>
</g>
<g>
<rect x="80" y="540" width="180" height="110" rx="26" fill="#FFF3CF" stroke="#D9D1BB" stroke-width="2" filter="url(#shadow)" />
<rect x="80" y="540" width="180" height="8" rx="26" fill="#E0A31A" />
<text x="98" y="580" fill="#131B2C" font-size="22" font-weight="750" font-family="DejaVu Sans, Arial, Helvetica, sans-serif" text-anchor="start" dominant-baseline="alphabetic">Workbench</text>
<text x="98" y="610" fill="#556071" font-size="15" font-weight="500" font-family="DejaVu Sans, Arial, Helvetica, sans-serif" text-anchor="start"><tspan x="98" dy="0">discovery</tspan><tspan x="98" dy="1.28em">control</tspan><tspan x="98" dy="1.28em">visualization</tspan></text>
</g>
<g>
<rect x="380" y="220" width="180" height="110" rx="26" fill="#EAF7F9" stroke="#D9D1BB" stroke-width="2" filter="url(#shadow)" />
<rect x="380" y="220" width="180" height="8" rx="26" fill="#1B8393" />
<text x="398" y="260" fill="#131B2C" font-size="22" font-weight="750" font-family="DejaVu Sans, Arial, Helvetica, sans-serif" text-anchor="start" dominant-baseline="alphabetic">SettingsMonitor</text>
<text x="398" y="290" fill="#556071" font-size="15" font-weight="500" font-family="DejaVu Sans, Arial, Helvetica, sans-serif" text-anchor="start"><tspan x="398" dy="0">registry</tspan><tspan x="398" dy="1.28em">settings</tspan><tspan x="398" dy="1.28em">capabilities</tspan></text>
</g>
<g>
<rect x="600" y="220" width="180" height="110" rx="26" fill="#EAF7F9" stroke="#D9D1BB" stroke-width="2" filter="url(#shadow)" />
<rect x="600" y="220" width="180" height="8" rx="26" fill="#1B8393" />
<text x="618" y="260" fill="#131B2C" font-size="22" font-weight="750" font-family="DejaVu Sans, Arial, Helvetica, sans-serif" text-anchor="start" dominant-baseline="alphabetic">HiveMind</text>
<text x="618" y="290" fill="#556071" font-size="15" font-weight="500" font-family="DejaVu Sans, Arial, Helvetica, sans-serif" text-anchor="start"><tspan x="618" dy="0">global tick</tspan><tspan x="618" dy="1.28em">brain lifecycle</tspan><tspan x="618" dy="1.28em">recovery</tspan></text>
</g>
<g>
<rect x="490" y="390" width="180" height="110" rx="26" fill="#EAF7F9" stroke="#D9D1BB" stroke-width="2" filter="url(#shadow)" />
<rect x="490" y="390" width="180" height="8" rx="26" fill="#1B8393" />
<text x="508" y="430" fill="#131B2C" font-size="22" font-weight="750" font-family="DejaVu Sans, Arial, Helvetica, sans-serif" text-anchor="start" dominant-baseline="alphabetic">IO Gateway</text>
<text x="508" y="460" fill="#556071" font-size="15" font-weight="500" font-family="DejaVu Sans, Arial, Helvetica, sans-serif" text-anchor="start"><tspan x="508" dy="0">public IO surface</tspan><tspan x="508" dy="1.28em">spawns coordinators</tspan></text>
</g>
<g>
<rect x="380" y="560" width="180" height="110" rx="26" fill="#EAF7F9" stroke="#D9D1BB" stroke-width="2" filter="url(#shadow)" />
<rect x="380" y="560" width="180" height="8" rx="26" fill="#1B8393" />
<text x="398" y="600" fill="#131B2C" font-size="22" font-weight="750" font-family="DejaVu Sans, Arial, Helvetica, sans-serif" text-anchor="start" dominant-baseline="alphabetic">Observability</text>
<text x="398" y="630" fill="#556071" font-size="15" font-weight="500" font-family="DejaVu Sans, Arial, Helvetica, sans-serif" text-anchor="start"><tspan x="398" dy="0">debug</tspan><tspan x="398" dy="1.28em">visualization</tspan></text>
</g>
<g>
<rect x="600" y="560" width="180" height="110" rx="26" fill="#EAF7F9" stroke="#D9D1BB" stroke-width="2" filter="url(#shadow)" />
<rect x="600" y="560" width="180" height="8" rx="26" fill="#1B8393" />
<text x="618" y="600" fill="#131B2C" font-size="22" font-weight="750" font-family="DejaVu Sans, Arial, Helvetica, sans-serif" text-anchor="start" dominant-baseline="alphabetic">Artifact Store</text>
<text x="618" y="630" fill="#556071" font-size="15" font-weight="500" font-family="DejaVu Sans, Arial, Helvetica, sans-serif" text-anchor="start"><tspan x="618" dy="0">.nbn / .nbs CAS</tspan><tspan x="618" dy="1.28em">partial fetch</tspan></text>
</g>
<g>
<rect x="920" y="230" width="170" height="90" rx="26" fill="#FFF1E7" stroke="#D9D1BB" stroke-width="2" filter="url(#shadow)" />
<rect x="920" y="230" width="170" height="8" rx="26" fill="#F97316" />
<text x="938" y="270" fill="#131B2C" font-size="20" font-weight="750" font-family="DejaVu Sans, Arial, Helvetica, sans-serif" text-anchor="start" dominant-baseline="alphabetic">BrainRoot</text>
<text x="938" y="300" fill="#556071" font-size="15" font-weight="500" font-family="DejaVu Sans, Arial, Helvetica, sans-serif" text-anchor="start"><tspan x="938" dy="0">control</tspan></text>
</g>
<g>
<rect x="1160" y="230" width="220" height="90" rx="26" fill="#FFF1E7" stroke="#D9D1BB" stroke-width="2" filter="url(#shadow)" />
<rect x="1160" y="230" width="220" height="8" rx="26" fill="#F97316" />
<text x="1178" y="270" fill="#131B2C" font-size="20" font-weight="750" font-family="DejaVu Sans, Arial, Helvetica, sans-serif" text-anchor="start" dominant-baseline="alphabetic">BrainSignalRouter</text>
<text x="1178" y="300" fill="#556071" font-size="15" font-weight="500" font-family="DejaVu Sans, Arial, Helvetica, sans-serif" text-anchor="start"><tspan x="1178" dy="0">deliver + route</tspan></text>
</g>
<g>
<rect x="910" y="390" width="180" height="250" rx="28" fill="white" stroke="#D9D1BB" stroke-width="2" />
<text x="930" y="426" fill="#131B2C" font-size="22" font-weight="800" font-family="DejaVu Sans, Arial, Helvetica, sans-serif" text-anchor="start" dominant-baseline="alphabetic">Worker A</text>
<g>
<rect x="930" y="440" width="88" height="28" rx="14.0" fill="#EAF7F9" />
<text x="974" y="455" fill="#131B2C" font-size="18" font-weight="700" font-family="DejaVu Sans, Arial, Helvetica, sans-serif" text-anchor="middle" dominant-baseline="middle">RTT 1x</text>
</g>
</g>
<g>
<rect x="1130" y="390" width="180" height="250" rx="28" fill="white" stroke="#D9D1BB" stroke-width="2" />
<text x="1150" y="426" fill="#131B2C" font-size="22" font-weight="800" font-family="DejaVu Sans, Arial, Helvetica, sans-serif" text-anchor="start" dominant-baseline="alphabetic">Worker B</text>
<g>
<rect x="1150" y="440" width="88" height="28" rx="14.0" fill="#EAF7F9" />
<text x="1194" y="455" fill="#131B2C" font-size="18" font-weight="700" font-family="DejaVu Sans, Arial, Helvetica, sans-serif" text-anchor="middle" dominant-baseline="middle">RTT 1x</text>
</g>
</g>
<g>
<rect x="1350" y="390" width="180" height="250" rx="28" fill="white" stroke="#D9D1BB" stroke-width="2" />
<text x="1370" y="426" fill="#131B2C" font-size="22" font-weight="800" font-family="DejaVu Sans, Arial, Helvetica, sans-serif" text-anchor="start" dominant-baseline="alphabetic">Worker C</text>
<g>
<rect x="1370" y="440" width="88" height="28" rx="14.0" fill="#F3F5F8" />
<text x="1414" y="455" fill="#131B2C" font-size="18" font-weight="700" font-family="DejaVu Sans, Arial, Helvetica, sans-serif" text-anchor="middle" dominant-baseline="middle">RTT 4x</text>
</g>
</g>
<rect x="932" y="470" width="136" height="44" rx="16" fill="#FFF1E7" stroke="#D9D1BB" stroke-width="2" />
<rect x="932" y="528" width="136" height="60" rx="16" fill="#FFF1E7" stroke="#D9D1BB" stroke-width="2" />
<rect x="1152" y="470" width="136" height="60" rx="16" fill="#FFF1E7" stroke="#D9D1BB" stroke-width="2" />
<rect x="1152" y="544" width="136" height="60" rx="16" fill="#FFF1E7" stroke="#D9D1BB" stroke-width="2" />
<rect x="1372" y="470" width="136" height="60" rx="16" fill="#FFF1E7" stroke="#D9D1BB" stroke-width="2" />
<rect x="1372" y="544" width="136" height="44" rx="16" fill="#FFF1E7" stroke="#D9D1BB" stroke-width="2" />
<text x="1000" y="496" fill="#131B2C" font-size="17" font-weight="700" font-family="DejaVu Sans, Arial, Helvetica, sans-serif" text-anchor="middle" dominant-baseline="middle">InputCoordinator</text>
<text x="1000" y="546" fill="#131B2C" font-size="16" font-weight="700" font-family="DejaVu Sans, Arial, Helvetica, sans-serif" text-anchor="middle"><tspan x="1000" dy="0">RegionShard A</tspan><tspan x="1000" dy="1.35em">0-1023</tspan></text>
<text x="1220" y="496" fill="#131B2C" font-size="16" font-weight="700" font-family="DejaVu Sans, Arial, Helvetica, sans-serif" text-anchor="middle"><tspan x="1220" dy="0">RegionShard B</tspan><tspan x="1220" dy="1.35em">1024-2047</tspan></text>
<text x="1220" y="570" fill="#131B2C" font-size="16" font-weight="700" font-family="DejaVu Sans, Arial, Helvetica, sans-serif" text-anchor="middle"><tspan x="1220" dy="0">RegionShard C</tspan><tspan x="1220" dy="1.35em">2048-3071</tspan></text>
<text x="1440" y="496" fill="#131B2C" font-size="16" font-weight="700" font-family="DejaVu Sans, Arial, Helvetica, sans-serif" text-anchor="middle"><tspan x="1440" dy="0">RegionShard D</tspan><tspan x="1440" dy="1.35em">3072-3499</tspan></text>
<text x="1440" y="570" fill="#131B2C" font-size="17" font-weight="700" font-family="DejaVu Sans, Arial, Helvetica, sans-serif" text-anchor="middle" dominant-baseline="middle">OutputCoordinator</text>
<g>
<line x1="260" y1="415" x2="490" y2="445" stroke="#E0A31A" stroke-width="3" stroke-linecap="round" marker-end="url(#arrow-gold)" />
<text x="380" y="405" fill="#E0A31A" font-size="14" font-weight="700" font-family="DejaVu Sans, Arial, Helvetica, sans-serif" text-anchor="middle" dominant-baseline="alphabetic">IO + control</text>
</g>
<g>
<line x1="260" y1="595" x2="380" y2="615" stroke="#E0A31A" stroke-width="3" stroke-linecap="round" marker-end="url(#arrow-gold)" />
<text x="320" y="580" fill="#E0A31A" font-size="14" font-weight="700" font-family="DejaVu Sans, Arial, Helvetica, sans-serif" text-anchor="middle" dominant-baseline="alphabetic">subscribe</text>
</g>
<g>
<line x1="560" y1="275" x2="600" y2="275" stroke="#131B2C" stroke-width="3" stroke-linecap="round" marker-end="url(#arrow-ink)" />
<text x="580" y="255" fill="#131B2C" font-size="14" font-weight="700" font-family="DejaVu Sans, Arial, Helvetica, sans-serif" text-anchor="middle" dominant-baseline="alphabetic">registry</text>
</g>
<g>
<line x1="580" y1="390" x2="690" y2="330" stroke="#131B2C" stroke-width="3" stroke-linecap="round" marker-end="url(#arrow-ink)" />
<text x="655" y="372" fill="#131B2C" font-size="14" font-weight="700" font-family="DejaVu Sans, Arial, Helvetica, sans-serif" text-anchor="middle" dominant-baseline="alphabetic">lifecycle</text>
</g>
<g>
<line x1="780" y1="275" x2="920" y2="275" stroke="#F97316" stroke-width="3" stroke-linecap="round" marker-end="url(#arrow-orange)" />
<text x="850" y="255" fill="#F97316" font-size="14" font-weight="700" font-family="DejaVu Sans, Arial, Helvetica, sans-serif" text-anchor="middle" dominant-baseline="alphabetic">place</text>
</g>
<g>
<line x1="1090" y1="275" x2="1160" y2="275" stroke="#F97316" stroke-width="3" stroke-linecap="round" marker-end="url(#arrow-orange)" />
</g>
<g>
<polyline points="1270,320 1270,360 1000,360 1000,390" fill="none" stroke="#F97316" stroke-width="3" stroke-linecap="round" stroke-linejoin="round" marker-end="url(#arrow-orange)" />
</g>
<g>
<polyline points="1270,320 1270,360 1220,360 1220,390" fill="none" stroke="#F97316" stroke-width="3" stroke-linecap="round" stroke-linejoin="round" marker-end="url(#arrow-orange)" />
</g>
<g>
<polyline points="1270,320 1270,360 1440,360 1440,390" fill="none" stroke="#F97316" stroke-width="3" stroke-linecap="round" stroke-linejoin="round" marker-end="url(#arrow-orange)" />
</g>
<g>
<line x1="780" y1="615" x2="910" y2="615" stroke="#1B8393" stroke-width="3" stroke-linecap="round" marker-end="url(#arrow-teal)" />
<text x="845" y="595" fill="#1B8393" font-size="14" font-weight="700" font-family="DejaVu Sans, Arial, Helvetica, sans-serif" text-anchor="middle" dominant-baseline="alphabetic">load / recover artifacts</text>
</g>
<g>
<rect x="80" y="800" width="1460" height="70" rx="28" fill="white" stroke="#D9D1BB" stroke-width="2" />
<rect x="80" y="800" width="14" height="70" rx="28" fill="#E0A31A" />
<text x="112" y="836" fill="#131B2C" font-size="21" font-weight="780" font-family="DejaVu Sans, Arial, Helvetica, sans-serif" text-anchor="start" dominant-baseline="alphabetic">Abstraction boundary</text>
<text x="112" y="864" fill="#556071" font-size="15" font-weight="500" font-family="DejaVu Sans, Arial, Helvetica, sans-serif" text-anchor="start"><tspan x="112" dy="0">Clients and Workbench talk to stable service roots.</tspan><tspan x="112" dy="1.22em">They do not need shard placement or actor PIDs.</tspan></text>
</g>
</svg>
