<svg xmlns="http://www.w3.org/2000/svg" width="1460" height="520" viewBox="0 0 1460 520" fill="none">
<rect x="0" y="0" width="1460" height="520" fill="white" />
<g transform="translate(62 46) scale(0.25)">
<g>
<polygon points="512,178 636,302 596,342 512,258 428,342 388,302" fill="#131B2C" />
<polygon points="820,512 696,636 656,596 740,512 656,428 696,388" fill="#E0A31A" />
<polygon points="512,846 388,722 428,682 512,766 596,682 636,722" fill="#131B2C" />
<polygon points="204,512 328,388 368,428 284,512 368,596 328,636" fill="#E0A31A" />
<path d="M 278,512 C 380,428 470,432 512,512 C 560,602 650,596 750,512" stroke="#1B8393" stroke-width="44" stroke-linecap="round" stroke-linejoin="round" />
<circle cx="512" cy="512" r="72" stroke="#131B2C" stroke-width="18" />
</g>
</g>
<g>
<path d="M 314,332 L 314,122 L 479,332 L 479,122" stroke="#131B2C" stroke-width="33" stroke-linecap="round" stroke-linejoin="round" />
<path d="M 530,122 L 530,332 M 543.2,122 L 645.32,122 Q 716,122 716,174.5 Q 716,227 645.32,227 L 543.2,227 M 543.2,227 L 645.32,227 Q 716,227 716,279.5 Q 716,332 645.32,332 L 543.2,332" stroke="#131B2C" stroke-width="33" stroke-linecap="round" stroke-linejoin="round" />
<path d="M 767,332 L 767,122 L 932,332 L 932,122" stroke="#131B2C" stroke-width="33" stroke-linecap="round" stroke-linejoin="round" />
</g>
</svg>
