<svg xmlns="http://www.w3.org/2000/svg" width="1024" height="1024" viewBox="0 0 1024 1024" fill="none">
<g>
<polygon points="512,178 636,302 596,342 512,258 428,342 388,302" fill="#131B2C" />
<polygon points="820,512 696,636 656,596 740,512 656,428 696,388" fill="#E0A31A" />
<polygon points="512,846 388,722 428,682 512,766 596,682 636,722" fill="#131B2C" />
<polygon points="204,512 328,388 368,428 284,512 368,596 328,636" fill="#E0A31A" />
<path d="M 278,512 C 380,428 470,432 512,512 C 560,602 650,596 750,512" stroke="#1B8393" stroke-width="44" stroke-linecap="round" stroke-linejoin="round" />
<circle cx="512" cy="512" r="72" stroke="#131B2C" stroke-width="18" />
</g>
</svg>
