<svg xmlns="http://www.w3.org/2000/svg" width="1024" height="1024" viewBox="0 0 1024 1024" fill="none">
<g>
<path d="M 259.48,377.73 A 286 286 0 0 1 404.86,246.83" stroke="#E0A31A" stroke-width="70" stroke-linecap="round" />
<path d="M 492.05,226.7 A 286 286 0 0 1 717.73,313.33" stroke="#131B2C" stroke-width="70" stroke-linecap="round" />
<path d="M 254.94,637.37 A 286 286 0 0 1 250.73,395.67" stroke="#E0A31A" stroke-width="70" stroke-linecap="round" />
<path d="M 731.09,695.84 A 286 286 0 0 1 502.02,797.83" stroke="#131B2C" stroke-width="70" stroke-linecap="round" />
<path d="M 404.86,777.17 A 286 286 0 0 1 254.94,637.37" stroke="#E0A31A" stroke-width="70" stroke-linecap="round" />
<path d="M 230.34,561.66 A 286 286 0 0 1 240,423.62" stroke="#131B2C" stroke-width="70" stroke-linecap="round" />
<path d="M 248,523 C 350,438 439,382 530,427 C 590,461 614,590 722,585" stroke="#1B8393" stroke-width="46" stroke-linecap="round" stroke-linejoin="round" />
<circle cx="530" cy="512" r="78" stroke="#131B2C" stroke-width="20" />
<circle cx="248" cy="523" r="16" fill="#F97316" />
<circle cx="722" cy="585" r="16" fill="#F97316" />
</g>
</svg>
