<svg xmlns="http://www.w3.org/2000/svg" width="1460" height="520" viewBox="0 0 1460 520" fill="none">
<rect x="0" y="0" width="1460" height="520" fill="white" />
<g transform="translate(62 46) scale(0.25)">
<g>
<polygon points="512,188 636,312 596,352 512,268 428,352 388,312" fill="#131B2C" />
<polygon points="836,512 712,636 672,596 756,512 672,428 712,388" fill="#E0A31A" />
<polygon points="512,836 388,712 428,672 512,756 596,672 636,712" fill="#131B2C" />
<polygon points="188,512 312,388 352,428 268,512 352,596 312,636" fill="#E0A31A" />
<path d="M 278,508 C 380,398 470,428 512,510 C 560,626 650,592 750,508" stroke="#1B8393" stroke-width="44" stroke-linecap="round" stroke-linejoin="round" />
<circle cx="512" cy="512" r="72" stroke="#131B2C" stroke-width="18" />
</g>
</g>
<g>
<path d="M 314,332 L 314,122 L 479,332 L 479,122" stroke="#131B2C" stroke-width="33" stroke-linecap="round" stroke-linejoin="round" />
<path d="M 530,122 L 530,332 M 543.2,122 L 645.32,122 Q 716,122 716,174.5 Q 716,227 645.32,227 L 543.2,227 M 543.2,227 L 645.32,227 Q 716,227 716,279.5 Q 716,332 645.32,332 L 543.2,332" stroke="#131B2C" stroke-width="33" stroke-linecap="round" stroke-linejoin="round" />
<path d="M 767,332 L 767,122 L 932,332 L 932,122" stroke="#131B2C" stroke-width="33" stroke-linecap="round" stroke-linejoin="round" />
</g>
</svg>
