<svg xmlns="http://www.w3.org/2000/svg" width="1024" height="1024" viewBox="0 0 1024 1024" fill="none">
<g>
<polygon points="512,188 636,312 596,352 512,268 428,352 388,312" fill="#131B2C" />
<polygon points="836,512 712,636 672,596 756,512 672,428 712,388" fill="#E0A31A" />
<polygon points="512,836 388,712 428,672 512,756 596,672 636,712" fill="#131B2C" />
<polygon points="188,512 312,388 352,428 268,512 352,596 312,636" fill="#E0A31A" />
<path d="M 278,508 C 380,398 470,428 512,510 C 560,626 650,592 750,508" stroke="#1B8393" stroke-width="44" stroke-linecap="round" stroke-linejoin="round" />
<circle cx="512" cy="512" r="72" stroke="#131B2C" stroke-width="18" />
</g>
</svg>
