<svg xmlns="http://www.w3.org/2000/svg" width="1024" height="1024" viewBox="0 0 1024 1024" fill="none">
<g>
<polygon points="512,188 636,312 596,352 512,268 428,352 388,312" fill="#131B2C" />
<polygon points="844,512 720,636 680,596 764,512 680,428 720,388" fill="#E0A31A" />
<polygon points="512,836 388,712 428,672 512,756 596,672 636,712" fill="#131B2C" />
<polygon points="180,512 304,388 344,428 260,512 344,596 304,636" fill="#E0A31A" />
<path d="M 270,520 C 376,436 470,440 496,516 C 560,606 654,604 758,520" stroke="#1B8393" stroke-width="44" stroke-linecap="round" stroke-linejoin="round" />
<circle cx="496" cy="522" r="72" stroke="#131B2C" stroke-width="18" />
</g>
</svg>
