<svg xmlns="http://www.w3.org/2000/svg" width="1024" height="1024" viewBox="0 0 1024 1024" fill="none">
<g>
<polygon points="512,181.52 638.48,308 597.68,348.8 512,263.12 426.32,348.8 385.52,308" fill="#131B2C" />
<polygon points="862.48,512 736,638.48 695.2,597.68 780.88,512 695.2,426.32 736,385.52" fill="#E0A31A" />
<polygon points="512,842.48 385.52,716 426.32,675.2 512,760.88 597.68,675.2 638.48,716" fill="#131B2C" />
<polygon points="161.52,512 288,385.52 328.8,426.32 243.12,512 328.8,597.68 288,638.48" fill="#E0A31A" />
<path d="M 258,512 C 370,428 470,432 512,512 C 560,602 660,596 770,512" stroke="#1B8393" stroke-width="44" stroke-linecap="round" stroke-linejoin="round" />
<circle cx="512" cy="512" r="72" stroke="#131B2C" stroke-width="18" />
</g>
</svg>
