<svg xmlns="http://www.w3.org/2000/svg" width="1460" height="520" viewBox="0 0 1460 520" fill="none">
<rect x="0" y="0" width="1460" height="520" fill="white" />
<g transform="translate(62 46) scale(0.25)">
<g>
<polygon points="512,181.52 638.48,308 597.68,348.8 512,263.12 426.32,348.8 385.52,308" fill="#131B2C" />
<polygon points="862.48,512 736,638.48 695.2,597.68 780.88,512 695.2,426.32 736,385.52" fill="#E0A31A" />
<polygon points="512,842.48 385.52,716 426.32,675.2 512,760.88 597.68,675.2 638.48,716" fill="#131B2C" />
<polygon points="161.52,512 288,385.52 328.8,426.32 243.12,512 328.8,597.68 288,638.48" fill="#E0A31A" />
<path d="M 258,512 C 370,428 470,432 512,512 C 560,602 660,596 770,512" stroke="#1B8393" stroke-width="44" stroke-linecap="round" stroke-linejoin="round" />
<circle cx="512" cy="512" r="72" stroke="#131B2C" stroke-width="18" />
</g>
</g>
<g>
<path d="M 314,332 L 314,122 L 479,332 L 479,122" stroke="#131B2C" stroke-width="33" stroke-linecap="round" stroke-linejoin="round" />
<path d="M 530,122 L 530,332 M 543.2,122 L 645.32,122 Q 716,122 716,174.5 Q 716,227 645.32,227 L 543.2,227 M 543.2,227 L 645.32,227 Q 716,227 716,279.5 Q 716,332 645.32,332 L 543.2,332" stroke="#131B2C" stroke-width="33" stroke-linecap="round" stroke-linejoin="round" />
<path d="M 767,332 L 767,122 L 932,332 L 932,122" stroke="#131B2C" stroke-width="33" stroke-linecap="round" stroke-linejoin="round" />
</g>
</svg>
