<svg xmlns="http://www.w3.org/2000/svg" width="1024" height="1024" viewBox="0 0 1024 1024" fill="none">
<g>
<polygon points="512,188 636,312 596,352 512,268 428,352 388,312" fill="#131B2C" />
<polygon points="816,512 692,636 652,596 736,512 652,428 692,388" fill="#E0A31A" />
<polygon points="512,836 388,712 428,672 512,756 596,672 636,712" fill="#131B2C" />
<polygon points="168,512 292,388 332,428 248,512 332,596 292,636" fill="#E0A31A" />
<path d="M 258,512 C 370,428 470,432 512,512 C 560,602 660,596 770,512" stroke="#1B8393" stroke-width="44" stroke-linecap="round" stroke-linejoin="round" />
<circle cx="512" cy="512" r="72" stroke="#131B2C" stroke-width="18" />
</g>
</svg>
