<svg xmlns="http://www.w3.org/2000/svg" width="1460" height="520" viewBox="0 0 1460 520" fill="none">
<rect x="0" y="0" width="1460" height="520" fill="white" />
<g transform="translate(62 46) scale(0.25)">
<g>
<path d="M 477.15,228.13 A 286 286 0 0 1 667.77,272.14" stroke="#E0A31A" stroke-width="70" stroke-linecap="round" />
<path d="M 734.26,332.01 A 286 286 0 0 1 792.75,566.57" stroke="#131B2C" stroke-width="70" stroke-linecap="round" />
<path d="M 487.07,796.91 A 286 286 0 0 1 272.14,667.77" stroke="#131B2C" stroke-width="70" stroke-linecap="round" />
<path d="M 233.33,576.34 A 286 286 0 0 1 261.86,373.34" stroke="#E0A31A" stroke-width="70" stroke-linecap="round" />
<path d="M 309.77,309.77 A 286 286 0 0 1 428.38,238.5" stroke="#131B2C" stroke-width="70" stroke-linecap="round" />
<path d="M 248,522 C 350,436 439,380 512,426 C 582,460 602,626 698,620" stroke="#1B8393" stroke-width="46" stroke-linecap="round" stroke-linejoin="round" />
<circle cx="512" cy="512" r="78" stroke="#131B2C" stroke-width="20" />
<circle cx="248" cy="522" r="16" fill="#F97316" />
<circle cx="698" cy="620" r="16" fill="#F97316" />
</g>
</g>
<g>
<path d="M 314,332 L 314,122 L 479,332 L 479,122" stroke="#131B2C" stroke-width="33" stroke-linecap="round" stroke-linejoin="round" />
<path d="M 530,122 L 530,332 M 543.2,122 L 645.32,122 Q 716,122 716,174.5 Q 716,227 645.32,227 L 543.2,227 M 543.2,227 L 645.32,227 Q 716,227 716,279.5 Q 716,332 645.32,332 L 543.2,332" stroke="#131B2C" stroke-width="33" stroke-linecap="round" stroke-linejoin="round" />
<path d="M 767,332 L 767,122 L 932,332 L 932,122" stroke="#131B2C" stroke-width="33" stroke-linecap="round" stroke-linejoin="round" />
</g>
</svg>
