<svg xmlns="http://www.w3.org/2000/svg" width="1024" height="1024" viewBox="0 0 1024 1024" fill="none">
<g>
<path d="M 339.88,283.59 A 286 286 0 0 1 526.97,226.39" stroke="#E0A31A" stroke-width="70" stroke-linecap="round" />
<path d="M 614.49,245 A 286 286 0 0 1 782.42,418.89" stroke="#131B2C" stroke-width="70" stroke-linecap="round" />
<path d="M 632.87,771.2 A 286 286 0 0 1 382.16,766.83" stroke="#131B2C" stroke-width="70" stroke-linecap="round" />
<path d="M 302.83,707.05 A 286 286 0 0 1 226.04,516.99" stroke="#E0A31A" stroke-width="70" stroke-linecap="round" />
<path d="M 235.75,437.98 A 286 286 0 0 1 302.83,316.95" stroke="#131B2C" stroke-width="70" stroke-linecap="round" />
<path d="M 248,518 C 350,428 439,372 512,422 C 587.33,456 610,600 714,590" stroke="#1B8393" stroke-width="46" stroke-linecap="round" stroke-linejoin="round" />
<circle cx="512" cy="512" r="78" stroke="#131B2C" stroke-width="20" />
<circle cx="248" cy="518" r="16" fill="#F97316" />
<circle cx="714" cy="590" r="16" fill="#F97316" />
</g>
</svg>
