<svg xmlns="http://www.w3.org/2000/svg" width="1460" height="520" viewBox="0 0 1460 520" fill="none">
<rect x="0" y="0" width="1460" height="520" fill="white" />
<g transform="translate(62 46) scale(0.25)">
<g>
<path d="M 551.8,228.78 A 286 286 0 0 1 724.54,320.63" stroke="#E0A31A" stroke-width="70" stroke-linecap="round" />
<path d="M 773.27,395.67 A 286 286 0 0 1 769.06,637.37" stroke="#131B2C" stroke-width="70" stroke-linecap="round" />
<path d="M 414.18,780.75 A 286 286 0 0 1 240,600.38" stroke="#131B2C" stroke-width="70" stroke-linecap="round" />
<path d="M 226.17,502.02 A 286 286 0 0 1 306.27,313.33" stroke="#E0A31A" stroke-width="70" stroke-linecap="round" />
<path d="M 369,264.32 A 286 286 0 0 1 502.02,226.17" stroke="#131B2C" stroke-width="70" stroke-linecap="round" />
<path d="M 248,525 C 350,442 439,386 512,429 C 578.67,463 597,640 688,637" stroke="#1B8393" stroke-width="46" stroke-linecap="round" stroke-linejoin="round" />
<circle cx="512" cy="516" r="78" stroke="#131B2C" stroke-width="20" />
<circle cx="248" cy="525" r="16" fill="#F97316" />
<circle cx="688" cy="637" r="16" fill="#F97316" />
</g>
</g>
<g>
<path d="M 314,332 L 314,122 L 479,332 L 479,122" stroke="#131B2C" stroke-width="33" stroke-linecap="round" stroke-linejoin="round" />
<path d="M 530,122 L 530,332 M 543.2,122 L 645.32,122 Q 716,122 716,174.5 Q 716,227 645.32,227 L 543.2,227 M 543.2,227 L 645.32,227 Q 716,227 716,279.5 Q 716,332 645.32,332 L 543.2,332" stroke="#131B2C" stroke-width="33" stroke-linecap="round" stroke-linejoin="round" />
<path d="M 767,332 L 767,122 L 932,332 L 932,122" stroke="#131B2C" stroke-width="33" stroke-linecap="round" stroke-linejoin="round" />
</g>
</svg>
