<svg xmlns="http://www.w3.org/2000/svg" width="1024" height="1024" viewBox="0 0 1024 1024" fill="none">
<g>
<path d="M 286.63,335.92 A 286 286 0 0 1 452.54,232.25" stroke="#E0A31A" stroke-width="70" stroke-linecap="round" />
<path d="M 541.9,227.57 A 286 286 0 0 1 749.1,352.07" stroke="#131B2C" stroke-width="70" stroke-linecap="round" />
<path d="M 695.84,731.09 A 286 286 0 0 1 452.54,791.75" stroke="#131B2C" stroke-width="70" stroke-linecap="round" />
<path d="M 360.44,754.54 A 286 286 0 0 1 237.08,590.83" stroke="#E0A31A" stroke-width="70" stroke-linecap="round" />
<path d="M 226,512 A 286 286 0 0 1 259.48,377.73" stroke="#131B2C" stroke-width="70" stroke-linecap="round" />
<path d="M 248,518 C 350,428 439,372 512,422 C 590,456 614,590 722,580" stroke="#1B8393" stroke-width="46" stroke-linecap="round" stroke-linejoin="round" />
<circle cx="512" cy="512" r="78" stroke="#131B2C" stroke-width="20" />
<circle cx="248" cy="518" r="16" fill="#F97316" />
<circle cx="722" cy="580" r="16" fill="#F97316" />
</g>
</svg>
