<svg xmlns="http://www.w3.org/2000/svg" width="1024" height="1024" viewBox="0 0 1024 1024" fill="none">
<g>
<path d="M 259.48,377.73 A 286 286 0 0 1 404.86,246.83" stroke="#E0A31A" stroke-width="70" stroke-linecap="round" />
<path d="M 492.05,226.7 A 286 286 0 0 1 717.73,313.33" stroke="#131B2C" stroke-width="70" stroke-linecap="round" />
<path d="M 769.06,386.63 A 286 286 0 0 1 773.27,628.33" stroke="#E0A31A" stroke-width="70" stroke-linecap="round" />
<path d="M 731.09,695.84 A 286 286 0 0 1 502.02,797.83" stroke="#131B2C" stroke-width="70" stroke-linecap="round" />
<path d="M 404.86,777.17 A 286 286 0 0 1 254.94,637.37" stroke="#E0A31A" stroke-width="70" stroke-linecap="round" />
<path d="M 230.34,561.66 A 286 286 0 0 1 240,423.62" stroke="#131B2C" stroke-width="70" stroke-linecap="round" />
<path d="M 248,528 C 350,448 430,392 512,432 C 586,466 608,590 710,590" stroke="#1B8393" stroke-width="46" stroke-linecap="round" stroke-linejoin="round" />
<circle cx="512" cy="512" r="78" stroke="#131B2C" stroke-width="20" />
<circle cx="248" cy="528" r="16" fill="#F97316" />
<circle cx="710" cy="590" r="16" fill="#F97316" />
</g>
</svg>
