<svg xmlns="http://www.w3.org/2000/svg" width="1024" height="1024" viewBox="0 0 1024 1024" fill="none">
<g>
<polygon points="512,180 844,512 512,844 180,512" stroke="#131B2C" stroke-width="34" />
<line x1="512" y1="232" x2="364" y2="380" stroke="#1B8393" stroke-width="24" stroke-linecap="round" />
<line x1="364" y1="380" x2="512" y2="528" stroke="#1B8393" stroke-width="24" stroke-linecap="round" />
<line x1="512" y1="528" x2="364" y2="676" stroke="#1B8393" stroke-width="24" stroke-linecap="round" />
<polygon points="406.29,315.88 640.29,547.88 679.71,508.12 445.71,276.12" fill="#F97316" />
<polygon points="512,208 536,232 512,256 488,232" fill="#F97316" stroke="#131B2C" stroke-width="12" />
<polygon points="364,356 388,380 364,404 340,380" fill="white" stroke="#131B2C" stroke-width="12" />
<polygon points="660,356 684,380 660,404 636,380" fill="white" stroke="#131B2C" stroke-width="12" />
<polygon points="512,504 536,528 512,552 488,528" fill="#F97316" stroke="#131B2C" stroke-width="12" />
<polygon points="364,652 388,676 364,700 340,676" fill="#F97316" stroke="#131B2C" stroke-width="12" />
</g>
</svg>
