<svg xmlns="http://www.w3.org/2000/svg" width="1460" height="520" viewBox="0 0 1460 520" fill="none">
<rect x="0" y="0" width="1460" height="520" fill="white" />
<g transform="translate(62 46) scale(0.25)">
<g>
<path d="M 236.19,422.39 A 290 290 0 0 1 772.65,384.87" stroke="#131B2C" stroke-width="78" stroke-linecap="round" />
<path d="M 797.59,562.36 A 290 290 0 0 1 230.61,582.16" stroke="#131B2C" stroke-width="78" stroke-linecap="round" />
<path d="M 224.82,552.36 A 290 290 0 0 1 224.82,471.64" stroke="#E0A31A" stroke-width="42" stroke-linecap="round" />
<path d="M 790.77,432.07 A 290 290 0 0 1 801.82,501.88" stroke="#E0A31A" stroke-width="42" stroke-linecap="round" />
<path d="M 222,524 C 330,426 414,396 498,438 C 566,470 590,590 794,550" stroke="#1B8393" stroke-width="48" stroke-linecap="round" stroke-linejoin="round" />
<circle cx="512" cy="512" r="76" stroke="#131B2C" stroke-width="20" />
<circle cx="222" cy="524" r="18" fill="#F97316" />
<circle cx="794" cy="550" r="18" fill="#F97316" />
</g>
</g>
<g>
<path d="M 314,332 L 314,122 L 479,332 L 479,122" stroke="#131B2C" stroke-width="33" stroke-linecap="round" stroke-linejoin="round" />
<path d="M 530,122 L 530,332 M 543.2,122 L 645.32,122 Q 716,122 716,174.5 Q 716,227 645.32,227 L 543.2,227 M 543.2,227 L 645.32,227 Q 716,227 716,279.5 Q 716,332 645.32,332 L 543.2,332" stroke="#131B2C" stroke-width="33" stroke-linecap="round" stroke-linejoin="round" />
<path d="M 767,332 L 767,122 L 932,332 L 932,122" stroke="#131B2C" stroke-width="33" stroke-linecap="round" stroke-linejoin="round" />
</g>
</svg>
