<svg xmlns="http://www.w3.org/2000/svg" width="1024" height="1024" viewBox="0 0 1024 1024" fill="none">
<g>
<path d="M 251.35,384.87 A 290 290 0 0 1 780.88,403.36" stroke="#131B2C" stroke-width="82" stroke-linecap="round" />
<path d="M 787.81,601.61 A 290 290 0 0 1 266.07,665.68" stroke="#131B2C" stroke-width="82" stroke-linecap="round" />
<polygon points="512,318 662,468 512,618 362,468" stroke="#1B8393" stroke-width="20" />
<line x1="512" y1="368" x2="412" y2="468" stroke="#1B8393" stroke-width="18" stroke-linecap="round" />
<line x1="512" y1="368" x2="612" y2="468" stroke="#1B8393" stroke-width="18" stroke-linecap="round" />
<line x1="412" y1="468" x2="512" y2="568" stroke="#1B8393" stroke-width="18" stroke-linecap="round" />
<polygon points="440.44,427.56 596.44,583.56 627.56,552.44 471.56,396.44" fill="#F97316" />
<polygon points="512,350 530,368 512,386 494,368" fill="#F97316" stroke="#131B2C" stroke-width="10" />
<polygon points="412,450 430,468 412,486 394,468" fill="white" stroke="#131B2C" stroke-width="10" />
<polygon points="612,450 630,468 612,486 594,468" fill="white" stroke="#131B2C" stroke-width="10" />
<polygon points="512,550 530,568 512,586 494,568" fill="#F97316" stroke="#131B2C" stroke-width="10" />
</g>
</svg>
