<svg xmlns="http://www.w3.org/2000/svg" width="1460" height="520" viewBox="0 0 1460 520" fill="none">
<rect x="0" y="0" width="1460" height="520" fill="white" />
<g transform="translate(62 46) scale(0.25)">
<g>
<path d="M 251.35,384.87 A 290 290 0 0 1 780.88,403.36" stroke="#131B2C" stroke-width="82" stroke-linecap="round" />
<path d="M 787.81,601.61 A 290 290 0 0 1 266.07,665.68" stroke="#131B2C" stroke-width="82" stroke-linecap="round" />
<polygon points="512,318 662,468 512,618 362,468" stroke="#1B8393" stroke-width="20" />
<line x1="512" y1="368" x2="412" y2="468" stroke="#1B8393" stroke-width="18" stroke-linecap="round" />
<line x1="512" y1="368" x2="612" y2="468" stroke="#1B8393" stroke-width="18" stroke-linecap="round" />
<line x1="412" y1="468" x2="512" y2="568" stroke="#1B8393" stroke-width="18" stroke-linecap="round" />
<polygon points="440.44,427.56 596.44,583.56 627.56,552.44 471.56,396.44" fill="#F97316" />
<polygon points="512,350 530,368 512,386 494,368" fill="#F97316" stroke="#131B2C" stroke-width="10" />
<polygon points="412,450 430,468 412,486 394,468" fill="white" stroke="#131B2C" stroke-width="10" />
<polygon points="612,450 630,468 612,486 594,468" fill="white" stroke="#131B2C" stroke-width="10" />
<polygon points="512,550 530,568 512,586 494,568" fill="#F97316" stroke="#131B2C" stroke-width="10" />
</g>
</g>
<g>
<path d="M 314,332 L 314,122 L 479,332 L 479,122" stroke="#131B2C" stroke-width="33" stroke-linecap="round" stroke-linejoin="round" />
<path d="M 530,122 L 530,332 M 543.2,122 L 645.32,122 Q 716,122 716,174.5 Q 716,227 645.32,227 L 543.2,227 M 543.2,227 L 645.32,227 Q 716,227 716,279.5 Q 716,332 645.32,332 L 543.2,332" stroke="#131B2C" stroke-width="33" stroke-linecap="round" stroke-linejoin="round" />
<path d="M 767,332 L 767,122 L 932,332 L 932,122" stroke="#131B2C" stroke-width="33" stroke-linecap="round" stroke-linejoin="round" />
</g>
</svg>
