<svg xmlns="http://www.w3.org/2000/svg" width="1460" height="520" viewBox="0 0 1460 520" fill="none">
<rect x="0" y="0" width="1460" height="520" fill="white" />
<g transform="translate(62 46) scale(0.25)">
<g>
<path d="M 274.9,352.07 A 286 286 0 0 1 531.95,226.7" stroke="#E0A31A" stroke-width="38" stroke-linecap="round" />
<path d="M 703.37,299.46 A 286 286 0 0 1 780.75,609.82" stroke="#131B2C" stroke-width="38" stroke-linecap="round" />
<path d="M 663.56,754.54 A 286 286 0 0 1 404.86,777.17" stroke="#E0A31A" stroke-width="38" stroke-linecap="round" />
<polygon points="512,282 742,512 512,742 282,512" stroke="#131B2C" stroke-width="16" />
<line x1="394" y1="402" x2="628" y2="628" stroke="#1B8393" stroke-width="18" stroke-linecap="round" />
<line x1="628" y1="402" x2="394" y2="628" stroke="#1B8393" stroke-width="18" stroke-linecap="round" />
<path d="M 310,572 C 414,458 474,438 532,464 C 592,490 640,590 736,586" stroke="#F97316" stroke-width="34" stroke-linecap="round" stroke-linejoin="round" />
<circle cx="394" cy="402" r="18" fill="white" stroke="#131B2C" stroke-width="10" />
<circle cx="628" cy="402" r="18" fill="white" stroke="#131B2C" stroke-width="10" />
<circle cx="394" cy="628" r="18" fill="white" stroke="#131B2C" stroke-width="10" />
<circle cx="628" cy="628" r="18" fill="white" stroke="#131B2C" stroke-width="10" />
</g>
</g>
<g>
<path d="M 314,332 L 314,122 L 479,332 L 479,122" stroke="#131B2C" stroke-width="33" stroke-linecap="round" stroke-linejoin="round" />
<path d="M 530,122 L 530,332 M 543.2,122 L 645.32,122 Q 716,122 716,174.5 Q 716,227 645.32,227 L 543.2,227 M 543.2,227 L 645.32,227 Q 716,227 716,279.5 Q 716,332 645.32,332 L 543.2,332" stroke="#131B2C" stroke-width="33" stroke-linecap="round" stroke-linejoin="round" />
<path d="M 767,332 L 767,122 L 932,332 L 932,122" stroke="#131B2C" stroke-width="33" stroke-linecap="round" stroke-linejoin="round" />
</g>
</svg>
