<svg xmlns="http://www.w3.org/2000/svg" width="1460" height="520" viewBox="0 0 1460 520" fill="none">
<rect x="0" y="0" width="1460" height="520" fill="white" />
<g transform="translate(62 46) scale(0.25)">
<g>
<path d="M 239.49,412.81 A 290 290 0 0 1 768.05,375.85" stroke="#131B2C" stroke-width="82" stroke-linecap="round" />
<path d="M 793.39,582.16 A 290 290 0 0 1 271.58,674.17" stroke="#131B2C" stroke-width="82" stroke-linecap="round" />
<path d="M 239.49,611.19 A 290 290 0 0 1 222,512" stroke="#E0A31A" stroke-width="42" stroke-linecap="round" />
<path d="M 793.39,441.84 A 290 290 0 0 1 801.82,522.12" stroke="#E0A31A" stroke-width="42" stroke-linecap="round" />
<line x1="362" y1="434" x2="512" y2="354" stroke="#1B8393" stroke-width="20" stroke-linecap="round" />
<line x1="512" y1="354" x2="662" y2="434" stroke="#1B8393" stroke-width="20" stroke-linecap="round" />
<line x1="512" y1="354" x2="512" y2="602" stroke="#1B8393" stroke-width="20" stroke-linecap="round" />
<polygon points="368.5,610.46 672.5,454.46 651.5,413.54 347.5,569.54" fill="#F97316" />
<polygon points="362,416 380,434 362,452 344,434" fill="#F97316" stroke="#131B2C" stroke-width="10" />
<polygon points="512,336 530,354 512,372 494,354" fill="white" stroke="#131B2C" stroke-width="10" />
<polygon points="662,416 680,434 662,452 644,434" fill="#F97316" stroke="#131B2C" stroke-width="10" />
<polygon points="512,584 530,602 512,620 494,602" fill="white" stroke="#131B2C" stroke-width="10" />
</g>
</g>
<g>
<path d="M 314,332 L 314,122 L 479,332 L 479,122" stroke="#131B2C" stroke-width="33" stroke-linecap="round" stroke-linejoin="round" />
<path d="M 530,122 L 530,332 M 543.2,122 L 645.32,122 Q 716,122 716,174.5 Q 716,227 645.32,227 L 543.2,227 M 543.2,227 L 645.32,227 Q 716,227 716,279.5 Q 716,332 645.32,332 L 543.2,332" stroke="#131B2C" stroke-width="33" stroke-linecap="round" stroke-linejoin="round" />
<path d="M 767,332 L 767,122 L 932,332 L 932,122" stroke="#131B2C" stroke-width="33" stroke-linecap="round" stroke-linejoin="round" />
</g>
</svg>
