<svg xmlns="http://www.w3.org/2000/svg" width="1460" height="520" viewBox="0 0 1460 520" fill="none">
<rect x="0" y="0" width="1460" height="520" fill="white" />
<g transform="translate(62 46) scale(0.24)">
<g>
<polygon points="512,188 636,312 596,352 512,268 428,352 388,312" fill="#131B2C" />
<polygon points="816,512 692,636 652,596 736,512 652,428 692,388" fill="#E0A31A" />
<polygon points="512,836 388,712 428,672 512,756 596,672 636,712" fill="#131B2C" />
<polygon points="168,512 292,388 332,428 248,512 332,596 292,636" fill="#E0A31A" />
<path d="M 258,512 C 370,428 470,432 512,512 C 560,602 660,596 770,512" stroke="#1B8393" stroke-width="44" stroke-linecap="round" stroke-linejoin="round" />
<circle cx="512" cy="512" r="72" stroke="#131B2C" stroke-width="18" />
</g>
</g>
<g>
<path d="M 314,332 L 314,122 L 479,332 L 479,122" stroke="#131B2C" stroke-width="32.34" stroke-linecap="round" stroke-linejoin="round" />
<path d="M 530,122 L 530,332 M 542.94,122 L 622.26,122 Q 678.8,122 678.8,174.5 Q 678.8,227 622.26,227 L 542.94,227 M 542.94,227 L 622.26,227 Q 678.8,227 678.8,279.5 Q 678.8,332 622.26,332 L 542.94,332" stroke="#131B2C" stroke-width="32.34" stroke-linecap="round" stroke-linejoin="round" />
<path d="M 729.8,332 L 729.8,122 L 894.8,332 L 894.8,122" stroke="#E0A31A" stroke-width="32.34" stroke-linecap="round" stroke-linejoin="round" />
</g>
</svg>
