<svg xmlns="http://www.w3.org/2000/svg" width="1800" height="640" viewBox="0 0 1800 640" fill="none">
<rect x="80" y="72" width="1640" height="496" rx="72" fill="white" />
<g transform="translate(96 82) scale(0.34)">
<g >
<circle cx="512" cy="512" r="348" fill="#EAF7F8" />
<path d="M 749.55,345.66 A 290 290 0 1 1 296.49,317.95" stroke="#103B73" stroke-width="46" stroke-linecap="round" />
<path d="M 351.25,637.59 A 204 204 0 1 1 681.12,626.08" stroke="#2BB6C4" stroke-width="24" stroke-linecap="round" opacity="0.95" />
<line x1="326" y1="714" x2="704" y2="322" stroke="#103B73" stroke-width="34" stroke-linecap="round" />
<polygon points="512,414 610,512 512,610 414,512" fill="white" stroke="#103B73" stroke-width="18" />
<circle cx="512" cy="512" r="22" fill="#FF6B4A" />
<circle cx="740.52" cy="333.46" r="28" fill="#FF6B4A" stroke="white" stroke-width="12" />
<circle cx="734.15" cy="698.41" r="22" fill="#2BB6C4" stroke="white" stroke-width="12" />
<circle cx="367" cy="763.15" r="22" fill="#2BB6C4" stroke="white" stroke-width="12" />
<circle cx="260.85" cy="367" r="22" fill="#2BB6C4" stroke="white" stroke-width="12" />
<line x1="772.52" y1="293.46" x2="832.52" y2="225.46" stroke="#FF6B4A" stroke-width="18" stroke-linecap="round" />
</g>
</g>
<g >
<path d="M 470,392 L 470,188 L 626.4,392 L 626.4,188" stroke="#102132" stroke-width="30.6" stroke-linecap="round" stroke-linejoin="round" />
<path d="M 711.4,188 L 711.4,392 M 711.4,188 L 810,188 Q 867.8,188 867.8,239 Q 867.8,290 810,290 L 711.4,290 M 711.4,290 L 810,290 Q 867.8,290 867.8,341 Q 867.8,392 810,392 L 711.4,392" stroke="#102132" stroke-width="30.6" stroke-linecap="round" stroke-linejoin="round" />
<path d="M 997,392 L 997,188 L 1153.4,392 L 1153.4,188" stroke="#102132" stroke-width="30.6" stroke-linecap="round" stroke-linejoin="round" />
</g>
<g >
<path d="M 453.78,439.54 A 118 118 0 0 1 682.21,455.51" stroke="#2BB6C4" stroke-width="14" stroke-linecap="round" />
<circle cx="682" cy="468" r="13" fill="#FF6B4A" />
</g>
<path d="M 468,512 L 1184,512" stroke="#103B73" stroke-width="6" stroke-linecap="round" opacity="0.18" />
</svg>
