<svg xmlns="http://www.w3.org/2000/svg" width="1024" height="1024" viewBox="0 0 1024 1024" fill="none">
<g >
<rect x="156" y="156" width="712" height="712" rx="240" fill="#FFF4E8" />
<path d="M 769.47,475.81 A 260 260 0 0 1 756.32,600.93" stroke="#2D6A73" stroke-width="54" stroke-linecap="round" />
<path d="M 719.65,668.47 A 260 260 0 0 1 621.88,747.64" stroke="#F2B544" stroke-width="54" stroke-linecap="round" />
<path d="M 548.19,769.47 A 260 260 0 0 1 423.07,756.32" stroke="#7A3E2B" stroke-width="54" stroke-linecap="round" />
<path d="M 355.53,719.65 A 260 260 0 0 1 276.36,621.88" stroke="#F2B544" stroke-width="54" stroke-linecap="round" />
<path d="M 254.53,548.19 A 260 260 0 0 1 267.68,423.07" stroke="#2D6A73" stroke-width="54" stroke-linecap="round" />
<path d="M 304.35,355.53 A 260 260 0 0 1 402.12,276.36" stroke="#F2B544" stroke-width="54" stroke-linecap="round" />
<path d="M 475.81,254.53 A 260 260 0 0 1 600.93,267.68" stroke="#7A3E2B" stroke-width="54" stroke-linecap="round" />
<path d="M 668.47,304.35 A 260 260 0 0 1 747.64,402.12" stroke="#F2B544" stroke-width="54" stroke-linecap="round" />
<path d="M 188,512 C 292,512 314,386 422,386 C 514,386 540,650 640,650 C 724,650 780,584 838,512" stroke="#7A3E2B" stroke-width="34" stroke-linecap="round" stroke-linejoin="round" />
<circle cx="188" cy="512" r="34" fill="#F2B544" stroke="white" stroke-width="14" />
<circle cx="838" cy="512" r="34" fill="#2D6A73" stroke="white" stroke-width="14" />
<circle cx="512" cy="512" r="86" fill="white" stroke="#7A3E2B" stroke-width="22" />
<path d="M 411.54,454 A 116 116 0 0 1 614.42,457.54" stroke="#2D6A73" stroke-width="18" stroke-linecap="round" />
</g>
</svg>
