<svg xmlns="http://www.w3.org/2000/svg" width="1800" height="640" viewBox="0 0 1800 640" fill="none">
<rect x="80" y="72" width="1640" height="496" rx="72" fill="white" />
<g transform="translate(96 82) scale(0.34)">
<g >
<rect x="156" y="156" width="712" height="712" rx="240" fill="#FFF4E8" />
<path d="M 769.47,475.81 A 260 260 0 0 1 756.32,600.93" stroke="#2D6A73" stroke-width="54" stroke-linecap="round" />
<path d="M 719.65,668.47 A 260 260 0 0 1 621.88,747.64" stroke="#F2B544" stroke-width="54" stroke-linecap="round" />
<path d="M 548.19,769.47 A 260 260 0 0 1 423.07,756.32" stroke="#7A3E2B" stroke-width="54" stroke-linecap="round" />
<path d="M 355.53,719.65 A 260 260 0 0 1 276.36,621.88" stroke="#F2B544" stroke-width="54" stroke-linecap="round" />
<path d="M 254.53,548.19 A 260 260 0 0 1 267.68,423.07" stroke="#2D6A73" stroke-width="54" stroke-linecap="round" />
<path d="M 304.35,355.53 A 260 260 0 0 1 402.12,276.36" stroke="#F2B544" stroke-width="54" stroke-linecap="round" />
<path d="M 475.81,254.53 A 260 260 0 0 1 600.93,267.68" stroke="#7A3E2B" stroke-width="54" stroke-linecap="round" />
<path d="M 668.47,304.35 A 260 260 0 0 1 747.64,402.12" stroke="#F2B544" stroke-width="54" stroke-linecap="round" />
<path d="M 188,512 C 292,512 314,386 422,386 C 514,386 540,650 640,650 C 724,650 780,584 838,512" stroke="#7A3E2B" stroke-width="34" stroke-linecap="round" stroke-linejoin="round" />
<circle cx="188" cy="512" r="34" fill="#F2B544" stroke="white" stroke-width="14" />
<circle cx="838" cy="512" r="34" fill="#2D6A73" stroke="white" stroke-width="14" />
<circle cx="512" cy="512" r="86" fill="white" stroke="#7A3E2B" stroke-width="22" />
<path d="M 411.54,454 A 116 116 0 0 1 614.42,457.54" stroke="#2D6A73" stroke-width="18" stroke-linecap="round" />
</g>
</g>
<g >
<path d="M 470,392 L 470,188 L 626.4,392 L 626.4,188" stroke="#2C1912" stroke-width="30.6" stroke-linecap="round" stroke-linejoin="round" />
<path d="M 711.4,188 L 711.4,392 M 711.4,188 L 810,188 Q 867.8,188 867.8,239 Q 867.8,290 810,290 L 711.4,290 M 711.4,290 L 810,290 Q 867.8,290 867.8,341 Q 867.8,392 810,392 L 711.4,392" stroke="#2C1912" stroke-width="30.6" stroke-linecap="round" stroke-linejoin="round" />
<path d="M 997,392 L 997,188 L 1153.4,392 L 1153.4,188" stroke="#2C1912" stroke-width="30.6" stroke-linecap="round" stroke-linejoin="round" />
</g>
<g >
<rect x="566" y="466" width="34" height="20" rx="10" fill="#7A3E2B" />
<rect x="614" y="466" width="34" height="20" rx="10" fill="#F2B544" />
<rect x="662" y="466" width="34" height="20" rx="10" fill="#7A3E2B" />
<rect x="710" y="466" width="34" height="20" rx="10" fill="#F2B544" />
<rect x="758" y="466" width="34" height="20" rx="10" fill="#7A3E2B" />
<rect x="806" y="466" width="34" height="20" rx="10" fill="#F2B544" />
<circle cx="876" cy="476" r="10" fill="#2D6A73" />
</g>
<path d="M 468,512 L 1184,512" stroke="#7A3E2B" stroke-width="6" stroke-linecap="round" opacity="0.18" />
</svg>
