<svg xmlns="http://www.w3.org/2000/svg" width="1024" height="1024" viewBox="0 0 1024 1024" fill="none">
<g >
<rect x="150" y="150" width="724" height="724" rx="210" fill="#EEF4FF" />
<polygon points="512,188 774,350 774,674 512,836 250,674 250,350" fill="#38BDF8" opacity="0.16" stroke="#1E3A8A" stroke-width="18" />
<polygon points="512,222 732,357 732,627 512,762 292,627 292,357" fill="#F4A261" opacity="0.12" stroke="#1E3A8A" stroke-width="16" />
<polygon points="512,260 674,364 674,572 512,676 350,572 350,364" fill="white" stroke="#1E3A8A" stroke-width="16" />
<line x1="512" y1="232" x2="512" y2="760" stroke="#1E3A8A" stroke-width="26" stroke-linecap="round" />
<line x1="350" y1="378" x2="674" y2="558" stroke="#38BDF8" stroke-width="18" stroke-linecap="round" />
<line x1="674" y1="378" x2="350" y2="558" stroke="#F4A261" stroke-width="18" stroke-linecap="round" />
<circle cx="512" cy="232" r="22" fill="#F4A261" />
<circle cx="512" cy="760" r="22" fill="#38BDF8" />
<polygon points="512,442 566,496 512,550 458,496" fill="#1E3A8A" />
</g>
</svg>
