<svg xmlns="http://www.w3.org/2000/svg" width="1800" height="640" viewBox="0 0 1800 640" fill="none">
<rect x="80" y="72" width="1640" height="496" rx="72" fill="white" />
<g transform="translate(96 82) scale(0.34)">
<g >
<polygon points="512,164 860,512 512,860 164,512" fill="#EEF4F6" />
<polygon points="512,192 832,512 512,832 192,512" stroke="#1D3557" stroke-width="18" />
<line x1="512" y1="228" x2="396" y2="344" stroke="#3AAFA9" stroke-width="16" stroke-linecap="round" opacity="0.78" />
<line x1="512" y1="228" x2="628" y2="344" stroke="#3AAFA9" stroke-width="16" stroke-linecap="round" opacity="0.78" />
<line x1="396" y1="344" x2="280" y2="460" stroke="#3AAFA9" stroke-width="16" stroke-linecap="round" opacity="0.78" />
<line x1="396" y1="344" x2="512" y2="460" stroke="#3AAFA9" stroke-width="16" stroke-linecap="round" opacity="0.78" />
<line x1="628" y1="344" x2="512" y2="460" stroke="#3AAFA9" stroke-width="16" stroke-linecap="round" opacity="0.78" />
<line x1="628" y1="344" x2="744" y2="460" stroke="#3AAFA9" stroke-width="16" stroke-linecap="round" opacity="0.78" />
<line x1="280" y1="460" x2="396" y2="576" stroke="#3AAFA9" stroke-width="16" stroke-linecap="round" opacity="0.78" />
<line x1="512" y1="460" x2="396" y2="576" stroke="#3AAFA9" stroke-width="16" stroke-linecap="round" opacity="0.78" />
<line x1="512" y1="460" x2="628" y2="576" stroke="#3AAFA9" stroke-width="16" stroke-linecap="round" opacity="0.78" />
<line x1="744" y1="460" x2="628" y2="576" stroke="#3AAFA9" stroke-width="16" stroke-linecap="round" opacity="0.78" />
<line x1="396" y1="576" x2="512" y2="692" stroke="#3AAFA9" stroke-width="16" stroke-linecap="round" opacity="0.78" />
<line x1="628" y1="576" x2="512" y2="692" stroke="#3AAFA9" stroke-width="16" stroke-linecap="round" opacity="0.78" />
<polyline points="512,228 396,344 512,460 628,576 512,692" fill="none" stroke="#E76F51" stroke-width="28" stroke-linecap="round" stroke-linejoin="round" />
<polygon points="512,200 540,228 512,256 484,228" fill="#E76F51" stroke="#1D3557" stroke-width="12" />
<polygon points="396,316 424,344 396,372 368,344" fill="#E76F51" stroke="#1D3557" stroke-width="12" />
<polygon points="628,322 650,344 628,366 606,344" fill="white" stroke="#1D3557" stroke-width="12" />
<polygon points="280,438 302,460 280,482 258,460" fill="white" stroke="#1D3557" stroke-width="12" />
<polygon points="512,432 540,460 512,488 484,460" fill="#E76F51" stroke="#1D3557" stroke-width="12" />
<polygon points="744,438 766,460 744,482 722,460" fill="white" stroke="#1D3557" stroke-width="12" />
<polygon points="396,554 418,576 396,598 374,576" fill="white" stroke="#1D3557" stroke-width="12" />
<polygon points="628,548 656,576 628,604 600,576" fill="#E76F51" stroke="#1D3557" stroke-width="12" />
<polygon points="512,664 540,692 512,720 484,692" fill="#E76F51" stroke="#1D3557" stroke-width="12" />
</g>
</g>
<g >
<path d="M 470,392 L 470,188 L 626.4,392 L 626.4,188" stroke="#132238" stroke-width="30.6" stroke-linecap="round" stroke-linejoin="round" />
<path d="M 711.4,188 L 711.4,392 M 711.4,188 L 810,188 Q 867.8,188 867.8,239 Q 867.8,290 810,290 L 711.4,290 M 711.4,290 L 810,290 Q 867.8,290 867.8,341 Q 867.8,392 810,392 L 711.4,392" stroke="#132238" stroke-width="30.6" stroke-linecap="round" stroke-linejoin="round" />
<path d="M 997,392 L 997,188 L 1153.4,392 L 1153.4,188" stroke="#132238" stroke-width="30.6" stroke-linecap="round" stroke-linejoin="round" />
</g>
<g >
<line x1="594" y1="476" x2="660" y2="476" stroke="#3AAFA9" stroke-width="10" stroke-linecap="round" />
<line x1="700" y1="476" x2="766" y2="476" stroke="#3AAFA9" stroke-width="10" stroke-linecap="round" />
<line x1="806" y1="476" x2="872" y2="476" stroke="#3AAFA9" stroke-width="10" stroke-linecap="round" />
<polygon points="566,462 580,476 566,490 552,476" fill="white" stroke="#1D3557" stroke-width="8" />
<polygon points="672,462 686,476 672,490 658,476" fill="#E76F51" stroke="#1D3557" stroke-width="8" />
<polygon points="778,462 792,476 778,490 764,476" fill="white" stroke="#1D3557" stroke-width="8" />
<polygon points="884,462 898,476 884,490 870,476" fill="#E76F51" stroke="#1D3557" stroke-width="8" />
</g>
<path d="M 468,512 L 1184,512" stroke="#1D3557" stroke-width="6" stroke-linecap="round" opacity="0.18" />
</svg>
