<svg xmlns="http://www.w3.org/2000/svg" width="1800" height="640" viewBox="0 0 1800 640" fill="none">
<rect x="80" y="72" width="1640" height="496" rx="72" fill="white" />
<g transform="translate(96 82) scale(0.34)">
<g >
<rect x="150" y="150" width="724" height="724" rx="210" fill="#EEF4FF" />
<polygon points="512,188 774,350 774,674 512,836 250,674 250,350" fill="#38BDF8" opacity="0.16" stroke="#1E3A8A" stroke-width="18" />
<polygon points="512,222 732,357 732,627 512,762 292,627 292,357" fill="#F4A261" opacity="0.12" stroke="#1E3A8A" stroke-width="16" />
<polygon points="512,260 674,364 674,572 512,676 350,572 350,364" fill="white" stroke="#1E3A8A" stroke-width="16" />
<line x1="512" y1="232" x2="512" y2="760" stroke="#1E3A8A" stroke-width="26" stroke-linecap="round" />
<line x1="350" y1="378" x2="674" y2="558" stroke="#38BDF8" stroke-width="18" stroke-linecap="round" />
<line x1="674" y1="378" x2="350" y2="558" stroke="#F4A261" stroke-width="18" stroke-linecap="round" />
<circle cx="512" cy="232" r="22" fill="#F4A261" />
<circle cx="512" cy="760" r="22" fill="#38BDF8" />
<polygon points="512,442 566,496 512,550 458,496" fill="#1E3A8A" />
</g>
</g>
<g >
<path d="M 470,392 L 470,188 L 626.4,392 L 626.4,188" stroke="#111827" stroke-width="30.6" stroke-linecap="round" stroke-linejoin="round" />
<path d="M 711.4,188 L 711.4,392 M 711.4,188 L 810,188 Q 867.8,188 867.8,239 Q 867.8,290 810,290 L 711.4,290 M 711.4,290 L 810,290 Q 867.8,290 867.8,341 Q 867.8,392 810,392 L 711.4,392" stroke="#111827" stroke-width="30.6" stroke-linecap="round" stroke-linejoin="round" />
<path d="M 997,392 L 997,188 L 1153.4,392 L 1153.4,188" stroke="#111827" stroke-width="30.6" stroke-linecap="round" stroke-linejoin="round" />
</g>
<g >
<path d="M 566,494 L 614,458 L 662,494 L 710,458 L 758,494" stroke="#1E3A8A" stroke-width="14" stroke-linecap="round" stroke-linejoin="round" />
<path d="M 584,510 L 740,510" stroke="#F4A261" stroke-width="8" stroke-linecap="round" />
</g>
<path d="M 468,512 L 1184,512" stroke="#1E3A8A" stroke-width="6" stroke-linecap="round" opacity="0.18" />
</svg>
