<svg xmlns="http://www.w3.org/2000/svg" width="1800" height="640" viewBox="0 0 1800 640" fill="none">
<rect x="80" y="72" width="1640" height="496" rx="72" fill="white" />
<g transform="translate(96 82) scale(0.34)">
<g >
<circle cx="512" cy="512" r="346" fill="#EEF7F6" />
<circle cx="512" cy="512" r="98" fill="white" stroke="#0B3954" stroke-width="24" />
<path d="M 663.87,431.25 A 172 172 0 1 1 346.66,559.41" stroke="#0B3954" stroke-width="30" stroke-linecap="round" />
<path d="M 732.74,629.37 A 250 250 0 1 1 418.35,280.2" stroke="#087E8B" stroke-width="24" stroke-linecap="round" />
<path d="M 253.34,337.53 A 312 312 0 1 1 757.86,704.09" stroke="#FF5A5F" stroke-width="20" stroke-linecap="round" />
<line x1="512" y1="512" x2="740" y2="318" stroke="#0B3954" stroke-width="18" stroke-linecap="round" />
<circle cx="740" cy="318" r="28" fill="#FF5A5F" stroke="white" stroke-width="10" />
<circle cx="350" cy="635" r="18" fill="#087E8B" />
<circle cx="612" cy="744" r="18" fill="#0B3954" />
<path d="M 446.02,414.17 A 118 118 0 0 1 574.53,411.93" stroke="#FF5A5F" stroke-width="14" stroke-linecap="round" />
</g>
</g>
<g >
<path d="M 470,392 L 470,188 L 626.4,392 L 626.4,188" stroke="#10212E" stroke-width="30.6" stroke-linecap="round" stroke-linejoin="round" />
<path d="M 711.4,188 L 711.4,392 M 711.4,188 L 810,188 Q 867.8,188 867.8,239 Q 867.8,290 810,290 L 711.4,290 M 711.4,290 L 810,290 Q 867.8,290 867.8,341 Q 867.8,392 810,392 L 711.4,392" stroke="#10212E" stroke-width="30.6" stroke-linecap="round" stroke-linejoin="round" />
<path d="M 997,392 L 997,188 L 1153.4,392 L 1153.4,188" stroke="#10212E" stroke-width="30.6" stroke-linecap="round" stroke-linejoin="round" />
</g>
<g >
<path d="M 604.37,447.26 A 68 68 0 0 1 733.63,468.89" stroke="#087E8B" stroke-width="12" stroke-linecap="round" />
<path d="M 579.78,417.84 A 104 104 0 0 1 756.07,424" stroke="#0B3954" stroke-width="10" stroke-linecap="round" />
<circle cx="770" cy="468" r="10" fill="#FF5A5F" />
</g>
<path d="M 468,512 L 1184,512" stroke="#0B3954" stroke-width="6" stroke-linecap="round" opacity="0.18" />
</svg>
