<svg xmlns="http://www.w3.org/2000/svg" width="1460" height="520" viewBox="0 0 1460 520" fill="none">
<rect x="0" y="0" width="1460" height="520" fill="white" />
<g transform="translate(62 46) scale(0.25)">
<g>
<path d="M 259.48,377.73 A 286 286 0 0 1 404.86,246.83" stroke="#E0A31A" stroke-width="70" stroke-linecap="round" />
<path d="M 492.05,226.7 A 286 286 0 0 1 717.73,313.33" stroke="#131B2C" stroke-width="70" stroke-linecap="round" />
<path d="M 769.06,386.63 A 286 286 0 0 1 773.27,628.33" stroke="#E0A31A" stroke-width="70" stroke-linecap="round" />
<path d="M 731.09,695.84 A 286 286 0 0 1 502.02,797.83" stroke="#131B2C" stroke-width="70" stroke-linecap="round" />
<path d="M 404.86,777.17 A 286 286 0 0 1 254.94,637.37" stroke="#E0A31A" stroke-width="70" stroke-linecap="round" />
<path d="M 230.34,561.66 A 286 286 0 0 1 240,423.62" stroke="#131B2C" stroke-width="70" stroke-linecap="round" />
<path d="M 248,518 C 350,438 439,382 530,427 C 590,461 614,590 722,580" stroke="#1B8393" stroke-width="46" stroke-linecap="round" stroke-linejoin="round" />
<circle cx="530" cy="512" r="78" stroke="#131B2C" stroke-width="20" />
<circle cx="248" cy="518" r="16" fill="#F97316" />
<circle cx="722" cy="580" r="16" fill="#F97316" />
</g>
</g>
<g>
<path d="M 314,332 L 314,122 L 479,332 L 479,122" stroke="#131B2C" stroke-width="33" stroke-linecap="round" stroke-linejoin="round" />
<path d="M 530,122 L 530,332 M 543.2,122 L 645.32,122 Q 716,122 716,174.5 Q 716,227 645.32,227 L 543.2,227 M 543.2,227 L 645.32,227 Q 716,227 716,279.5 Q 716,332 645.32,332 L 543.2,332" stroke="#131B2C" stroke-width="33" stroke-linecap="round" stroke-linejoin="round" />
<path d="M 767,332 L 767,122 L 932,332 L 932,122" stroke="#131B2C" stroke-width="33" stroke-linecap="round" stroke-linejoin="round" />
</g>
</svg>
