<svg xmlns="http://www.w3.org/2000/svg" width="1460" height="520" viewBox="0 0 1460 520" fill="none">
<rect x="0" y="0" width="1460" height="520" fill="white" />
<g transform="translate(62 46) scale(0.25)">
<g>
<path d="M 623.75,248.74 A 286 286 0 0 1 766.83,382.16" stroke="#E0A31A" stroke-width="70" stroke-linecap="round" />
<path d="M 794.48,467.26 A 286 286 0 0 1 727.85,699.63" stroke="#131B2C" stroke-width="70" stroke-linecap="round" />
<path d="M 659.3,757.15 A 286 286 0 0 1 418.89,782.42" stroke="#E0A31A" stroke-width="70" stroke-linecap="round" />
<path d="M 347.96,746.28 A 286 286 0 0 1 226.39,526.97" stroke="#131B2C" stroke-width="70" stroke-linecap="round" />
<path d="M 238.5,428.38 A 286 286 0 0 1 364.7,266.85" stroke="#E0A31A" stroke-width="70" stroke-linecap="round" />
<path d="M 437.98,235.75 A 286 286 0 0 1 576.34,233.33" stroke="#131B2C" stroke-width="70" stroke-linecap="round" />
<path d="M 252,526 C 352,454 437,398 526,435 C 566,469 578,554 650,552" stroke="#1B8393" stroke-width="46" stroke-linecap="round" stroke-linejoin="round" />
<circle cx="526" cy="512" r="78" stroke="#131B2C" stroke-width="20" />
<circle cx="252" cy="526" r="16" fill="#F97316" />
<circle cx="650" cy="552" r="16" fill="#F97316" />
</g>
</g>
<g>
<path d="M 314,332 L 314,122 L 479,332 L 479,122" stroke="#131B2C" stroke-width="33" stroke-linecap="round" stroke-linejoin="round" />
<path d="M 530,122 L 530,332 M 543.2,122 L 645.32,122 Q 716,122 716,174.5 Q 716,227 645.32,227 L 543.2,227 M 543.2,227 L 645.32,227 Q 716,227 716,279.5 Q 716,332 645.32,332 L 543.2,332" stroke="#131B2C" stroke-width="33" stroke-linecap="round" stroke-linejoin="round" />
<path d="M 767,332 L 767,122 L 932,332 L 932,122" stroke="#131B2C" stroke-width="33" stroke-linecap="round" stroke-linejoin="round" />
</g>
</svg>
