<svg xmlns="http://www.w3.org/2000/svg" width="1500" height="560" viewBox="0 0 1500 560" fill="none">
<rect x="0" y="0" width="1500" height="560" fill="white" />
<g transform="translate(82 86) scale(0.29)">
<g>
<path d="M 170.24,442.9 A 316 316 0 0 1 788.27,496.97" stroke="#11B5E4" stroke-width="70" stroke-linecap="round" />
<path d="M 784.73,572.06 A 246 246 0 1 1 356.06,334.44" stroke="#10213A" stroke-width="82" stroke-linecap="round" />
<path d="M 363.44,473.03 A 152 152 0 0 1 656.68,488.4" stroke="#10213A" stroke-width="40" stroke-linecap="round" />
<line x1="500" y1="520" x2="768" y2="288" stroke="#10213A" stroke-width="22" stroke-linecap="round" />
<circle cx="500" cy="520" r="28" fill="#FF595E" />
<circle cx="770" cy="286" r="26" fill="#11B5E4" stroke="white" stroke-width="12" />
</g>
</g>
<g>
<path d="M 390,424 L 390,192 L 572.29,424 L 572.29,192" stroke="#10213A" stroke-width="36.46" stroke-linecap="round" stroke-linejoin="round" />
<path d="M 628.63,192 L 628.63,424 M 646.86,192 L 760.14,192 Q 840.74,192 840.74,250 Q 840.74,308 760.14,308 L 646.86,308 M 646.86,308 L 760.14,308 Q 840.74,308 840.74,366 Q 840.74,424 760.14,424 L 646.86,424" stroke="#10213A" stroke-width="36.46" stroke-linecap="round" stroke-linejoin="round" />
<path d="M 897.09,424 L 897.09,192 L 1079.37,424 L 1079.37,192" stroke="#10213A" stroke-width="36.46" stroke-linecap="round" stroke-linejoin="round" />
</g>
<g>
<path d="M 320.51,371.79 A 124 124 0 0 1 550.32,400" stroke="#11B5E4" stroke-width="18" stroke-linecap="round" />
<circle cx="546" cy="380" r="13" fill="#FF595E" />
</g>
</svg>
