<svg xmlns="http://www.w3.org/2000/svg" width="1500" height="560" viewBox="0 0 1500 560" fill="none">
<rect x="0" y="0" width="1500" height="560" fill="white" />
<g transform="translate(82 84) scale(0.28)">
<g>
<polygon points="512,178 846,512 512,846 178,512" stroke="#102038" stroke-width="36" />
<polygon points="363.49,276.51 639.49,552.51 680.51,511.49 404.51,235.49" fill="#F06A3D" />
<polygon points="639.49,511.49 491.49,659.49 532.51,700.51 680.51,552.51" fill="#F06A3D" />
<line x1="258" y1="520" x2="388" y2="390" stroke="#102038" stroke-width="30" stroke-linecap="square" />
<line x1="388" y1="390" x2="510" y2="512" stroke="#102038" stroke-width="30" stroke-linecap="square" />
<line x1="388" y1="646" x2="512" y2="522" stroke="#4FB3BF" stroke-width="22" stroke-linecap="square" />
<polygon points="512,494 540,522 512,550 484,522" fill="#102038" />
</g>
</g>
<g>
<path d="M 366,422 L 366,190 L 551.6,422 L 551.6,190" stroke="#102038" stroke-width="39.77" stroke-linecap="square" stroke-linejoin="miter" />
<path d="M 607.94,190 L 607.94,422 M 613.91,190 L 737.33,190 L 810.11,241.04 L 810.11,287.44 L 741.38,306 M 607.94,306 L 741.38,306 L 810.11,324.56 L 810.11,370.96 L 737.33,422 L 613.91,422" stroke="#102038" stroke-width="39.77" stroke-linecap="square" stroke-linejoin="miter" />
<path d="M 866.46,422 L 866.46,190 L 1052.06,422 L 1052.06,190" stroke="#102038" stroke-width="39.77" stroke-linecap="square" stroke-linejoin="miter" />
</g>
</svg>
