<svg xmlns="http://www.w3.org/2000/svg" width="1024" height="1024" viewBox="0 0 1024 1024" fill="none">
<g>
<path d="M 787.56,443.29 A 284 284 0 0 1 678.93,741.76" stroke="#D49A1D" stroke-width="84" stroke-linecap="butt" />
<path d="M 521.91,795.83 A 284 284 0 0 1 245.13,609.13" stroke="#111827" stroke-width="84" stroke-linecap="butt" />
<path d="M 232.31,462.68 A 284 284 0 0 1 424.24,241.9" stroke="#D49A1D" stroke-width="84" stroke-linecap="butt" />
<path d="M 561.32,232.31 A 284 284 0 0 1 771.45,396.49" stroke="#111827" stroke-width="84" stroke-linecap="butt" />
<line x1="344" y1="664" x2="650" y2="358" stroke="#111827" stroke-width="44" stroke-linecap="round" />
<rect x="650" y="314" width="38" height="78" rx="8" fill="#FF6B35" transform="rotate(45 669 353)" />
<rect x="244" y="472" width="34" height="80" rx="8" fill="#D49A1D" transform="rotate(-90 261 512)" />
<rect x="476" y="772" width="34" height="86" rx="8" fill="#FF6B35" transform="rotate(0 493 815)" />
<circle cx="512" cy="512" r="88" stroke="#111827" stroke-width="28" />
</g>
</svg>
