<svg xmlns="http://www.w3.org/2000/svg" width="1500" height="560" viewBox="0 0 1500 560" fill="none">
<rect x="0" y="0" width="1500" height="560" fill="white" />
<g transform="translate(84 88) scale(0.29)">
<g>
<path d="M 789.71,602.23 A 292 292 0 1 1 792.69,431.51" stroke="#111827" stroke-width="88" stroke-linecap="butt" />
<rect x="478" y="184" width="68" height="118" rx="12" fill="white" />
<rect x="768" y="478" width="118" height="68" rx="12" fill="white" />
<rect x="478" y="722" width="68" height="118" rx="12" fill="white" />
<rect x="140" y="478" width="118" height="68" rx="12" fill="white" />
<path d="M 274,512 C 386,512 400,388 510,388 C 632,388 638,640 754,640" stroke="#0E7490" stroke-width="48" stroke-linecap="round" stroke-linejoin="round" />
<circle cx="274" cy="512" r="18" fill="#F97316" />
<circle cx="754" cy="640" r="18" fill="#F97316" />
<circle cx="512" cy="512" r="74" stroke="#111827" stroke-width="22" />
</g>
</g>
<g>
<path d="M 392,424 L 392,192 L 570.97,424 L 570.97,192" stroke="#111827" stroke-width="36.46" stroke-linecap="round" stroke-linejoin="round" />
<path d="M 630.63,192 L 630.63,424 M 630.63,192 L 760.08,192 Q 839.43,192 839.43,250 Q 839.43,308 760.08,308 L 630.63,308 M 630.63,308 L 760.08,308 Q 839.43,308 839.43,366 Q 839.43,424 760.08,424 L 630.63,424" stroke="#111827" stroke-width="36.46" stroke-linecap="round" stroke-linejoin="round" />
<path d="M 899.09,424 L 899.09,192 L 1078.06,424 L 1078.06,192" stroke="#111827" stroke-width="36.46" stroke-linecap="round" stroke-linejoin="round" />
</g>
<g>
<line x1="402" y1="470" x2="486" y2="470" stroke="#0E7490" stroke-width="18" stroke-linecap="round" />
<line x1="486" y1="470" x2="552" y2="412" stroke="#F97316" stroke-width="18" stroke-linecap="round" />
</g>
</svg>
