<svg xmlns="http://www.w3.org/2000/svg" width="1500" height="560" viewBox="0 0 1500 560" fill="none">
<rect x="0" y="0" width="1500" height="560" fill="white" />
<g transform="translate(82 88) scale(0.29)">
<g>
<path d="M 787.56,443.29 A 284 284 0 0 1 678.93,741.76" stroke="#D49A1D" stroke-width="84" stroke-linecap="butt" />
<path d="M 521.91,795.83 A 284 284 0 0 1 245.13,609.13" stroke="#111827" stroke-width="84" stroke-linecap="butt" />
<path d="M 232.31,462.68 A 284 284 0 0 1 424.24,241.9" stroke="#D49A1D" stroke-width="84" stroke-linecap="butt" />
<path d="M 561.32,232.31 A 284 284 0 0 1 771.45,396.49" stroke="#111827" stroke-width="84" stroke-linecap="butt" />
<line x1="344" y1="664" x2="650" y2="358" stroke="#111827" stroke-width="44" stroke-linecap="round" />
<rect x="650" y="314" width="38" height="78" rx="8" fill="#FF6B35" transform="rotate(45 669 353)" />
<rect x="244" y="472" width="34" height="80" rx="8" fill="#D49A1D" transform="rotate(-90 261 512)" />
<rect x="476" y="772" width="34" height="86" rx="8" fill="#FF6B35" transform="rotate(0 493 815)" />
<circle cx="512" cy="512" r="88" stroke="#111827" stroke-width="28" />
</g>
</g>
<g>
<path d="M 392,424 L 392,192 L 570.97,424 L 570.97,192" stroke="#111827" stroke-width="36.46" stroke-linecap="round" stroke-linejoin="round" />
<path d="M 630.63,192 L 630.63,424 M 630.63,192 L 760.08,192 Q 839.43,192 839.43,250 Q 839.43,308 760.08,308 L 630.63,308 M 630.63,308 L 760.08,308 Q 839.43,308 839.43,366 Q 839.43,424 760.08,424 L 630.63,424" stroke="#111827" stroke-width="36.46" stroke-linecap="round" stroke-linejoin="round" />
<path d="M 899.09,424 L 899.09,192 L 1078.06,424 L 1078.06,192" stroke="#111827" stroke-width="36.46" stroke-linecap="round" stroke-linejoin="round" />
</g>
<g>
<line x1="360" y1="396" x2="440" y2="316" stroke="#D49A1D" stroke-width="22" stroke-linecap="round" />
<rect x="432" y="304" width="26" height="54" rx="6" fill="#FF6B35" transform="rotate(45 445 331)" />
</g>
</svg>
