<svg xmlns="http://www.w3.org/2000/svg" width="1024" height="1024" viewBox="0 0 1024 1024" fill="none">
<g>
<polygon points="512,176 848,512 512,848 176,512" stroke="#102038" stroke-width="34" />
<polygon points="362,640 362,368 310,368 310,640" fill="#102038" />
<polygon points="317.62,386.38 671.62,740.38 708.38,703.62 354.38,349.62" fill="#2AA8A1" />
<polygon points="716,722 716,332 664,332 664,722" fill="#102038" />
<polygon points="242.36,518.36 342.36,418.36 329.64,405.64 229.64,505.64" fill="#F59E0B" />
<polygon points="696.36,338.36 792.36,242.36 779.64,229.64 683.64,325.64" fill="#F59E0B" />
<rect x="338" y="368" width="26" height="26" fill="white" transform="rotate(45 351 381)" />
<rect x="676" y="710" width="26" height="26" fill="white" transform="rotate(45 689 723)" />
</g>
</svg>
