<svg xmlns="http://www.w3.org/2000/svg" width="1024" height="1024" viewBox="0 0 1024 1024" fill="none">
<g>
<path d="M 477.15,228.13 A 286 286 0 0 1 667.77,272.14" stroke="#E0A31A" stroke-width="70" stroke-linecap="round" />
<path d="M 734.26,332.01 A 286 286 0 0 1 792.75,566.57" stroke="#131B2C" stroke-width="70" stroke-linecap="round" />
<path d="M 487.07,796.91 A 286 286 0 0 1 272.14,667.77" stroke="#131B2C" stroke-width="70" stroke-linecap="round" />
<path d="M 233.33,576.34 A 286 286 0 0 1 261.86,373.34" stroke="#E0A31A" stroke-width="70" stroke-linecap="round" />
<path d="M 309.77,309.77 A 286 286 0 0 1 428.38,238.5" stroke="#131B2C" stroke-width="70" stroke-linecap="round" />
<path d="M 248,515 C 350,390 439,322 512,397 C 590,446 602,626 698,632" stroke="#1B8393" stroke-width="46" stroke-linecap="round" stroke-linejoin="round" />
<circle cx="512" cy="512" r="78" stroke="#131B2C" stroke-width="20" />
<circle cx="248" cy="515" r="16" fill="#F97316" />
<circle cx="698" cy="632" r="16" fill="#F97316" />
</g>
</svg>
